<svg width="30" height="30" viewBox="0 0 30 30" fill="none" xmlns="http://www.w3.org/2000/svg">
<path d="M12.5624 3.16248L5.0374 8.07498C2.6249 9.64998 2.6249 13.175 5.0374 14.75L12.5624 19.6625C13.9124 20.55 16.1374 20.55 17.4874 19.6625L24.9749 14.75C27.3749 13.175 27.3749 9.66248 24.9749 8.08748L17.4874 3.17498C16.1374 2.27498 13.9124 2.27498 12.5624 3.16248Z" stroke="#8A8A8A" stroke-width="1.5" stroke-linecap="round" stroke-linejoin="round"/>
<path d="M7.0374 16.35L7.0249 22.2125C7.0249 23.8 8.2499 25.5 9.7499 26L13.7374 27.325C14.4249 27.55 15.5624 27.55 16.2624 27.325L20.2499 26C21.7499 25.5 22.9749 23.8 22.9749 22.2125V16.4125" stroke="#8A8A8A" stroke-width="1.5" stroke-linecap="round" stroke-linejoin="round"/>
<path d="M26.75 18.75V11.25" stroke="#8A8A8A" stroke-width="1.5" stroke-linecap="round" stroke-linejoin="round"/>
</svg>
